<?xml version="1.0" encoding="UTF-8"?>
<svg width="212.3" height="125" version="1.1" viewBox="0 0 212.3 125" xml:space="preserve" xmlns="http://www.w3.org/2000/svg" xmlns:cc="http://creativecommons.org/ns#" xmlns:dc="http://purl.org/dc/elements/1.1/" xmlns:rdf="http://www.w3.org/1999/02/22-rdf-syntax-ns#"><metadata><rdf:RDF><cc:Work rdf:about=""><dc:format>image/svg+xml</dc:format><dc:type rdf:resource="http://purl.org/dc/dcmitype/StillImage"/><dc:title/></cc:Work></rdf:RDF></metadata>
<style type="text/css">
	.st0{fill:#FFFFFF;}
	.st1{fill:#F08223;}
</style>
<g transform="translate(-53.5,-30.1)">
	<path class="st0" d="m245.9 56.5c0 2.1-0.4 3.6-1.1 4.7-1.3 1.9-4 2.8-8.6 2.8h-15.8c-0.5 0-0.9-0.4-0.9-0.9v-13.2c0-0.5 0.4-0.9 0.9-0.9h16c4.4 0 7.1 0.9 8.5 2.9 0.6 1.1 1 2.6 1 4.6v0m19.8-0.2c0-8-2.5-14.2-7.5-19.1-4.9-4.7-10.3-6.5-19.2-6.5h-39.8c-0.5 0-1 0.4-1 1v71c0 0.5 0.4 1 1 1h19.2c0.5 0 1-0.4 1-1v-19.6c0-0.5 0.4-0.9 0.9-0.9h19.3c9.2 0 15.5-2.3 19.8-7.2 4.1-4.5 6.3-11.2 6.3-18.7"/>
	<path class="st0" d="m90.6 83.4c-8.9 0-16.2-7.2-16.2-16.2 0-8.9 7.2-16.2 16.2-16.2s16.2 7.2 16.2 16.2c-0.1 8.9-7.3 16.2-16.2 16.2m0-53.3c-20.5 0-37.1 16.7-37.1 37.1 0 20.5 16.6 37.1 37.1 37.1s37.1-16.6 37.1-37.1c0-20.4-16.7-37.1-37.1-37.1"/>
	<path class="st0" d="m186.7 85.4h-25.7c-0.8 0-1.2-0.8-0.8-1.5l29.8-46c0.4-0.7 0.6-1.4 0.6-2.3 0-2.6-2.1-4.7-4.7-4.8h-54.7c-0.5 0-1 0.4-1 1v16.3c0 0.5 0.4 1 1 1h25.8c0.7 0 1.2 0.8 0.8 1.4l-29.5 45.5c-0.7 1.2-0.9 2-0.9 2.8 0 2.6 2.1 4.8 4.7 4.8h54.7c0.5 0 1-0.4 1-1v-16.3c-0.1-0.5-0.6-0.9-1.1-0.9"/>
	<path class="st1" d="m65.7 125.5c0-3.4-1.3-4.9-3.5-4.9-2.4 0-3.8 1.5-3.8 4.9 0 3.5 1.4 4.9 3.7 4.9 2.1 0.1 3.6-1.3 3.6-4.9m-10.6 0.1c0-4.3 2.4-7.6 7.1-7.6s6.7 3.3 6.7 7.3c0 4.7-2.3 7.8-7 7.8-4.8 0-6.8-3.1-6.8-7.5"/>
	<path class="st1" d="m74.9 130.5c1.7 0 2.8-0.3 2.8-1.9s-1.1-1.9-2.5-1.9h-1.9v3.8zm-0.4-6.2c1.4 0 2.9-0.3 2.9-2 0-1.6-1-1.7-2.4-1.7h-1.6v3.6h1.1zm-4.3 8.6v-14.6h5.8c3.4 0 4.4 1.6 4.4 3.6s-1.3 3-2.8 3.4c2.3 0.3 3.4 1.6 3.4 3.6 0 3-2.3 4-5.5 4z"/>
	<path class="st1" d="m92.7 125.5c0-3.4-1.3-4.9-3.5-4.9-2.4 0-3.8 1.5-3.8 4.9 0 3.5 1.4 4.9 3.7 4.9 2.1 0.1 3.6-1.3 3.6-4.9m-10.6 0.1c0-4.3 2.4-7.6 7.1-7.6s6.7 3.3 6.7 7.3c0 4.7-2.3 7.8-7 7.8-4.8 0-6.8-3.1-6.8-7.5"/>
	<path class="st1" d="m102.3 124.9c1.4 0 2.6-0.5 2.6-2.2 0-1.4-0.9-1.9-2.5-1.9h-1.7v4.1zm6.7 8h-3.3l-2.9-5.5h-2v5.5h-3.1v-14.6h5.7c3.6 0 4.8 1.9 4.8 4.1s-1 3.5-2.5 4.2z"/>
	<path class="st1" d="m120 125.5c0-3.4-1.3-4.9-3.5-4.9-2.4 0-3.8 1.5-3.8 4.9 0 3.5 1.4 4.9 3.7 4.9 2.1 0.1 3.6-1.3 3.6-4.9m-10.6 0.1c0-4.3 2.4-7.6 7.1-7.6s6.7 3.3 6.7 7.3c0 4.7-2.3 7.8-7 7.8-4.8 0-6.8-3.1-6.8-7.5"/>
	<polygon class="st1" points="126.8 118.3 130.1 129.8 130.3 129.8 133.6 118.3 136.8 118.3 132.2 132.9 128.1 132.9 123.3 118.3"/>
	<path class="st1" d="m141.9 117.4-2.2-0.2 1.8-2.8h3.3zm-0.4 3.8-1.9 5.6h3.7zm1.9-2.9 5.2 14.6h-3.4l-1.2-3.5h-4.8l-1.1 3.5h-3.2l4.8-14.6z"/>
	<polygon class="st1" points="167.1 132.9 156.3 132.9 156.3 130.6 163.2 120.9 156.5 120.9 156.5 118.3 166.8 118.3 166.8 120.6 160 130.2 167.1 130.2"/>
	<path class="st1" d="m173.6 130.4c3.4 0 4.5-1.8 4.5-4.8 0-3.6-1.4-4.7-4.3-4.7h-1.8v9.6h1.6zm-4.6 2.5v-14.6h5.1c5.1 0 7.2 2.7 7.2 7.1 0 4.5-2.4 7.5-7.6 7.5z"/>
	<path class="st1" d="m187.6 124.9c1.4 0 2.6-0.5 2.6-2.2 0-1.4-0.9-1.9-2.5-1.9h-1.7v4.1zm6.6 8h-3.3l-2.9-5.5h-2v5.5h-3v-14.6h5.7c3.6 0 4.8 1.9 4.8 4.1s-1 3.5-2.5 4.2z"/>
	<path class="st1" d="m201.5 121.2-1.9 5.6h3.7zm1.9-2.9 5.2 14.6h-3.4l-1.2-3.5h-4.8l-1.1 3.5h-3.2l4.8-14.6z"/>
	<polygon class="st1" points="209.2 118.3 212.5 129.8 212.6 129.8 215.9 118.3 219.1 118.3 214.6 132.9 210.4 132.9 205.7 118.3"/>
	<path class="st1" d="m229.9 125.5c0-3.4-1.3-4.9-3.5-4.9-2.4 0-3.8 1.5-3.8 4.9 0 3.5 1.4 4.9 3.7 4.9 2 0.1 3.6-1.3 3.6-4.9m-10.6 0.1c0-4.3 2.4-7.6 7.1-7.6s6.7 3.3 6.7 7.3c0 4.7-2.3 7.8-7 7.8-4.9 0-6.8-3.1-6.8-7.5"/>
	<polygon class="st1" points="233 120.9 233 118.3 244.7 118.3 244.7 120.9 240.4 120.9 240.4 132.9 237.3 132.9 237.3 120.9"/>
	<polygon class="st1" points="249 132.9 246.1 132.9 246.1 118.3 249.8 118.3 255.3 128.6 255.3 118.3 258.2 118.3 258.2 132.9 254.6 132.9 249 122.6"/>
	<path class="st1" d="m264 132.9h-3.1v-14.6h3.1zm-1.1-15.5-2.2-0.2 1.8-2.8h3.3z"/>
	<path class="st1" d="m103.6 147.6h-1.2v-4.9h1.5c1.5 0 2.6 0.4 2.6 2.3 0 2.1-1.3 2.6-2.9 2.6m1.2-7.4h-5.5v14.6h3.1v-4.7h1.6c3.8 0 5.7-1.8 5.7-5.3 0-2.3-1.2-4.6-4.9-4.6"/>
	<path class="st1" d="m117.5 152.4c-2.3 0-3.7-1.4-3.7-4.9 0-3.4 1.5-4.9 3.8-4.9 2.2 0 3.5 1.5 3.5 4.9 0.1 3.6-1.4 4.9-3.6 4.9m0.2-12.4c-4.7 0-7.1 3.3-7.1 7.6 0 4.4 2 7.5 6.8 7.5 4.7 0 7-3 7-7.7 0-4.1-2-7.4-6.7-7.4"/>
	<path class="st1" d="m130.5 150.8c0 1.3-0.5 1.7-1.4 1.7-1.2 0-1.4-0.8-1.5-2l-3 0.4c0.1 3.1 1.9 4.1 4.4 4.1 3 0 4.6-1.4 4.6-4.3v-10.5h-3.1z"/>
	<rect class="st1" x="136.2" y="140.2" width="3.1" height="14.6"/>
	<polygon class="st1" points="148.2 136.3 146.7 137.8 145.2 136.3 143.2 136.5 145.3 139.3 148.1 139.3 150.2 136.5"/>
	<path class="st1" d="m144.5 143.9c0-0.9 0.7-1.6 2.2-1.6 1.7 0 2.3 0.8 2.4 2.2l2.8-0.3c-0.2-3.5-2.6-4.3-5.2-4.3-2.9 0-5.3 1.5-5.3 4.4 0 5.5 7.6 3.4 7.6 6.4 0 1.3-1.1 1.8-2.4 1.8-2.1 0-2.7-1.2-2.9-2.6l-2.8 0.4c0.3 3.8 3 4.6 5.6 4.6 2.9 0 5.6-1.3 5.6-4.6 0-5.2-7.6-3.3-7.6-6.4"/>
	<polygon class="st1" points="152.3 142.9 156.6 142.9 156.6 154.8 159.7 154.8 159.7 142.9 164 142.9 164 140.2 152.3 140.2"/>
	<polygon class="st1" points="159.6 136.3 158.1 137.8 156.7 136.3 154.6 136.5 156.7 139.3 159.5 139.3 161.7 136.5"/>
	<path class="st1" d="m170.9 152.4c-2.3 0-3.7-1.4-3.7-4.9 0-3.4 1.5-4.9 3.8-4.9 2.2 0 3.5 1.5 3.5 4.9 0 3.6-1.5 4.9-3.6 4.9m0.2-12.4c-4.7 0-7.1 3.3-7.1 7.6 0 4.4 2 7.5 6.8 7.5 4.7 0 7-3 7-7.7-0.1-4.1-2-7.4-6.7-7.4"/>
	<polygon class="st1" points="181.3 140.2 177.8 140.2 182.6 154.8 186.8 154.8 191.3 140.2 188.1 140.2 184.8 151.8 184.7 151.8"/>
	<polygon class="st1" points="192.5 140.2 192.5 154.8 195.4 154.8 195.4 144.5 201 154.8 204.6 154.8 204.6 140.2 201.7 140.2 201.7 150.6 196.2 140.2"/>
	<path class="st1" d="m211 148.8 1.8-5.6h0.1l1.8 5.6zm3.7-8.6h-3.9l-4.8 14.6h3.2l1.1-3.5h4.8l1.2 3.5h3.4z"/>
</g>
</svg>