<?xml version="1.0" standalone="no"?>
<!DOCTYPE svg PUBLIC "-//W3C//DTD SVG 20010904//EN"
 "http://www.w3.org/TR/2001/REC-SVG-20010904/DTD/svg10.dtd">
<svg version="1.0" xmlns="http://www.w3.org/2000/svg"
 width="700.000000pt" height="700.000000pt" viewBox="0 0 700.000000 700.000000"
 preserveAspectRatio="xMidYMid meet">
<metadata>
Created by potrace 1.14, written by Peter Selinger 2001-2017
</metadata>
<g transform="translate(0.000000,700.000000) scale(0.100000,-0.100000)"
fill="#000000" stroke="none">
<path d="M3087 6484 c-1 -1 -45 -4 -97 -8 -146 -10 -178 -14 -337 -41 -90 -15
-290 -71 -363 -102 -110 -46 -246 -121 -320 -177 -73 -55 -221 -198 -270 -262
-8 -10 -29 -37 -46 -59 -113 -145 -227 -342 -437 -755 -85 -168 -204 -402
-264 -520 -243 -477 -322 -716 -329 -995 -6 -259 50 -462 210 -760 94 -174
283 -451 438 -640 210 -256 214 -260 378 -425 163 -162 293 -271 460 -382 328
-218 724 -366 1188 -444 113 -19 144 -24 191 -29 30 -4 62 -8 72 -10 10 -2 58
-7 106 -10 48 -4 104 -8 123 -11 53 -6 416 -6 485 0 33 3 78 8 100 11 22 3 57
7 77 10 76 10 233 48 332 80 381 126 689 386 1124 950 98 127 344 498 427 646
198 348 314 669 343 949 9 88 8 277 -2 375 -8 81 -40 255 -56 310 -5 17 -19
62 -31 100 -166 549 -555 1116 -1034 1507 -296 241 -645 421 -1045 538 -57 17
-118 33 -135 36 -16 3 -55 11 -85 19 -30 7 -89 19 -130 26 -41 7 -77 13 -80
14 -3 1 -34 5 -70 10 -36 5 -67 9 -70 10 -3 1 -39 5 -80 9 -41 4 -86 9 -100
11 -82 12 -661 28 -673 19z"/>
</g>
</svg>
