<?xml version="1.0" encoding="UTF-8"?>
<!--Generator: Adobe Illustrator 14.0.0, SVG Export Plug-In . SVG Version: 6.00 Build 43363)-->
<!DOCTYPE svg PUBLIC "-//W3C//DTD SVG 1.1//EN" "http://www.w3.org/Graphics/SVG/1.1/DTD/svg11.dtd">
<svg xmlns="http://www.w3.org/2000/svg" width="196" height="47" viewBox="-57.5 177 196 47"><path fill="#ffffff" d="M-9.336 186.45a1.06 1.06 0 00-.114.498c0 .584.411.877 1.231.877h3.524c.827 0 1.241-.271 1.241-.813 0-.54-.415-.808-1.241-.808h-2.481l3.061-4.146a5.02 5.02 0 00.397-.594.997.997 0 00.117-.475c0-.299-.125-.518-.374-.653-.247-.134-.625-.203-1.134-.203h-2.977c-.833 0-1.248.266-1.248.797 0 .274.101.474.303.603.203.125.518.189.944.189h2.263l-3.141 4.165a4.73 4.73 0 00-.371.563M-1.188 181.765h.767c1.415 0 2.122.71 2.122 2.124 0 1.544-.698 2.315-2.091 2.315h-.798v-4.439zm-1.286 5.957c.171.068.411.103.721.103h1.601c.588 0 1.114-.09 1.573-.271a3.285 3.285 0 001.182-.793 3.41 3.41 0 00.747-1.243c.17-.48.254-1.02.254-1.619 0-.354-.038-.693-.115-1.015a4.032 4.032 0 00-.326-.887 3.678 3.678 0 00-.508-.746 3.184 3.184 0 00-.682-.579c-.571-.358-1.335-.539-2.293-.539h-1.41c-.317 0-.564.044-.743.13-.177.086-.3.217-.366.393s-.102.414-.102.709v5.356c0 .29.037.511.106.666a.644.644 0 00.361.335M7.985 183.364c-.191.168-.468.25-.825.25h-.808v-1.871h.83c.236 0 .434.037.598.111a.79.79 0 01.37.318.928.928 0 01.124.489c-.001.301-.096.535-.289.703m2.117-.828c0-.725-.256-1.307-.767-1.745-.509-.438-1.231-.658-2.165-.658H5.807c-.318 0-.564.043-.744.13a.711.711 0 00-.366.393c-.066.178-.1.414-.1.709v5.313c0 .423.071.735.214.939.142.202.363.302.665.302.583 0 .875-.413.875-1.241v-1.892l2.042 2.563c.181.219.34.379.485.478a.768.768 0 00.456.152.81.81 0 00.835-.825c0-.284-.176-.619-.523-1.004l-1.384-1.535c.583-.104 1.033-.338 1.356-.703.323-.367.484-.826.484-1.376M13.762 181.909l.887 2.853h-1.837l.95-2.853zm-2.979 5.919a.887.887 0 00.427.103c.391 0 .671-.258.84-.775l.264-.772h2.843l.216.71c.088.285.207.497.358.641a.787.787 0 00.562.211c.24 0 .446-.074.614-.229a.766.766 0 00.251-.595c0-.145-.039-.33-.117-.556l-1.95-5.523c-.117-.33-.286-.582-.508-.758a1.217 1.217 0 00-.78-.262c-.321 0-.59.094-.806.281-.216.187-.397.471-.538.855l-2.001 5.436a1.379 1.379 0 00-.084.508c0 .162.036.305.107.432a.773.773 0 00.302.293M19.652 187.7c.074.094.16.164.261.209.1.045.22.069.361.069a.803.803 0 00.528-.171c.139-.111.257-.298.36-.559l2.272-5.775c.077-.195.116-.397.116-.606 0-.249-.076-.446-.229-.593-.152-.144-.36-.216-.622-.216-.222 0-.395.063-.519.186-.126.124-.241.333-.347.633l-1.505 4.306-1.622-4.368c-.094-.268-.204-.46-.327-.579a.672.672 0 00-.476-.177.895.895 0 00-.649.249.829.829 0 00-.259.622c0 .173.034.34.1.503l2.346 5.885c.067.161.138.288.211.382M26.093 182.229c.338-.435.793-.65 1.359-.65.367 0 .694.097.977.29.283.194.501.475.656.841.155.367.233.797.233 1.296 0 .477-.078.893-.235 1.251a1.886 1.886 0 01-.661.832 1.69 1.69 0 01-.971.289c-.366 0-.69-.097-.975-.289a1.889 1.889 0 01-.659-.832c-.158-.358-.234-.774-.234-1.251.001-.751.169-1.344.51-1.777m-.188 5.529c.463.196.977.294 1.541.294.563 0 1.077-.098 1.542-.289a3.412 3.412 0 001.2-.835c.335-.359.593-.791.773-1.291.179-.499.269-1.05.269-1.652a4.87 4.87 0 00-.272-1.665 3.626 3.626 0 00-.781-1.29 3.458 3.458 0 00-1.204-.824 3.923 3.923 0 00-1.527-.288c-.557 0-1.065.095-1.529.288a3.398 3.398 0 00-1.199.829 3.726 3.726 0 00-.774 1.291 4.792 4.792 0 00-.273 1.659c0 .599.09 1.147.268 1.651.181.501.437.933.768 1.29.335.358.732.637 1.198.832M33.431 187.612c.146.205.364.308.658.308.583 0 .876-.415.876-1.242v-4.913h.649c.832 0 1.246-.268 1.246-.808 0-.55-.414-.824-1.246-.824h-3.048c-.832 0-1.247.274-1.247.824 0 .54.415.808 1.247.808h.645v4.913c-.001.417.074.726.22.934M38.203 187.92c.584 0 .877-.414.877-1.241v-3.54l3.169 4.189c.321.426.655.64 1.004.64.278 0 .481-.091.609-.27.128-.181.194-.454.194-.824v-5.595c0-.831-.292-1.245-.876-1.245-.586 0-.878.414-.878 1.245v3.603l-3.232-4.272a1.757 1.757 0 00-.434-.428.904.904 0 00-.497-.138c-.543 0-.813.393-.813 1.173v5.462c0 .423.072.734.214.938.143.202.363.303.663.303M45.458 186.68c0 .423.073.733.215.938.143.202.363.303.664.303.584 0 .876-.413.876-1.24v-5.399c0-.832-.292-1.246-.876-1.246-.586 0-.879.414-.879 1.246v5.398zM46.626 179.289l.825-.909c.186-.208.278-.41.278-.607a.61.61 0 00-.197-.457.678.678 0 00-.483-.188c-.251 0-.455.116-.614.345l-.791 1.082c-.123.162-.185.32-.185.477 0 .173.052.314.157.426.107.114.25.17.428.17.184-.002.378-.112.582-.339M-6.943 193.362h.751c.407 0 .708.08.903.243.195.162.292.416.292.76 0 .34-.1.593-.299.765-.201.172-.5.257-.896.257h-.751v-2.025zm-.877 6.176c.584 0 .876-.414.876-1.242v-1.321h1.177c.561 0 1.042-.104 1.444-.313.403-.209.708-.51.916-.902.208-.389.313-.854.313-1.394 0-.524-.111-.984-.336-1.379a2.252 2.252 0 00-.969-.912c-.422-.214-.925-.322-1.509-.322h-1.58c-.317 0-.564.042-.742.129a.703.703 0 00-.366.394c-.067.177-.101.412-.101.708v5.313c0 .424.072.736.214.939.142.202.362.302.663.302M-.101 193.849c.338-.435.794-.65 1.359-.65.367 0 .695.097.978.289.283.195.5.476.656.841.155.367.232.798.232 1.296 0 .477-.077.893-.234 1.252-.157.359-.376.637-.66.83s-.607.291-.972.291a1.69 1.69 0 01-.974-.291c-.284-.193-.503-.471-.66-.83s-.235-.775-.235-1.252c.001-.752.171-1.345.51-1.776m-.188 5.527c.464.197.978.295 1.542.295.563 0 1.076-.098 1.542-.291a3.442 3.442 0 001.201-.833c.335-.361.593-.792.773-1.291a4.874 4.874 0 00.269-1.653c0-.605-.09-1.16-.271-1.664a3.593 3.593 0 00-.781-1.291 3.475 3.475 0 00-1.205-.824 3.941 3.941 0 00-1.527-.288c-.557 0-1.065.096-1.529.288a3.383 3.383 0 00-1.198.83 3.73 3.73 0 00-.775 1.29 4.8 4.8 0 00-.273 1.659c0 .599.09 1.148.269 1.652.181.5.437.931.768 1.29.332.358.73.637 1.195.831M6.224 199.476c.303.115.653.174 1.047.174.482 0 .891-.095 1.229-.284.337-.187.591-.474.763-.858.173-.384.259-.853.259-1.41V192.9c0-.831-.292-1.247-.876-1.247-.585 0-.878.416-.878 1.249v3.637c0 .497-.04.859-.121 1.086-.081.228-.233.341-.455.341-.113 0-.288-.064-.521-.191-.237-.129-.435-.194-.594-.194a.779.779 0 00-.586.229.789.789 0 00-.221.578.94.94 0 00.251.624c.166.19.4.345.703.464M11.791 199.538c.585 0 .877-.412.877-1.24v-5.399c0-.832-.292-1.246-.877-1.246s-.877.414-.877 1.246v5.399c0 .422.072.734.214.938.143.202.361.302.663.302M16.396 198.017c-.274 0-.62-.064-1.035-.195-.416-.131-.694-.195-.835-.195a1 1 0 00-.454.098.694.694 0 00-.306.28.79.79 0 00-.106.409c0 .212.108.411.323.6.214.188.515.34.901.459.384.118.806.178 1.263.178.599 0 1.126-.113 1.578-.335s.801-.527 1.044-.917c.243-.391.364-.837.364-1.339 0-.388-.075-.724-.229-1.013a2.158 2.158 0 00-.707-.759 4.776 4.776 0 00-1.183-.563 95.633 95.633 0 01-.595-.194 3.105 3.105 0 01-.447-.179.73.73 0 01-.263-.214.535.535 0 01-.091-.321c0-.192.076-.352.227-.475.152-.125.361-.185.63-.185.159 0 .396.046.713.135.317.09.538.133.66.133.247 0 .439-.065.58-.199a.723.723 0 00.209-.543c0-.317-.194-.586-.578-.806s-.891-.331-1.522-.331c-.551 0-1.04.107-1.462.317-.424.212-.75.505-.981.875-.23.372-.346.786-.346 1.244 0 .578.169 1.027.511 1.351.338.324.892.602 1.66.829.321.1.573.189.757.271.183.08.327.184.43.308a.734.734 0 01.156.483c0 .224-.081.41-.244.564a.877.877 0 01-.622.229M14.864 190.083l1.179.924a.71.71 0 00.443.158.727.727 0 00.444-.158l1.18-.924a.873.873 0 00.247-.266.62.62 0 00.074-.316c0-.164-.047-.3-.143-.406a.469.469 0 00-.364-.157c-.126 0-.292.058-.496.174l-.941.565-.94-.565c-.205-.116-.373-.174-.501-.174a.486.486 0 00-.363.154.573.573 0 00-.146.409c0 .129.025.233.075.315.048.082.133.171.252.267M19.133 192.575c0 .539.414.808 1.246.808h.645v4.913c0 .417.074.727.221.934.146.206.364.309.659.309.583 0 .875-.414.875-1.242v-4.913h.649c.832 0 1.246-.269 1.246-.808 0-.549-.414-.823-1.246-.823H20.38c-.833-.001-1.247.273-1.247.822M20.444 190.082l1.177.925a.736.736 0 00.444.158.72.72 0 00.444-.158l1.176-.925c.219-.168.33-.362.33-.581a.57.57 0 00-.147-.405.468.468 0 00-.366-.158c-.126 0-.292.058-.495.175l-.942.563-.939-.563c-.206-.117-.371-.175-.499-.175a.478.478 0 00-.366.154.573.573 0 00-.146.409c0 .129.025.232.074.314s.134.174.255.267M27.181 193.849c.339-.435.793-.65 1.359-.65.367 0 .694.097.977.289.283.195.501.476.657.841.155.367.233.798.233 1.296 0 .477-.078.893-.235 1.252a1.887 1.887 0 01-.661.83 1.684 1.684 0 01-.971.291c-.366 0-.69-.098-.974-.291a1.883 1.883 0 01-.659-.83c-.159-.359-.235-.775-.235-1.252-.001-.752.169-1.345.509-1.776m-.188 5.527c.463.197.977.295 1.541.295.563 0 1.077-.098 1.542-.291a3.423 3.423 0 001.201-.833c.335-.361.593-.792.773-1.291a4.899 4.899 0 00.269-1.653c0-.605-.09-1.16-.272-1.664a3.607 3.607 0 00-.781-1.291 3.462 3.462 0 00-1.204-.824 3.943 3.943 0 00-1.528-.288c-.557 0-1.065.096-1.528.288a3.382 3.382 0 00-1.2.83c-.335.36-.595.791-.774 1.29a4.8 4.8 0 00-.273 1.659c0 .599.09 1.148.269 1.652.18.5.437.931.768 1.29a3.4 3.4 0 001.197.831M35.139 199.319c.074.093.16.163.261.209.1.045.22.068.36.068a.802.802 0 00.529-.17c.139-.111.257-.299.36-.561l2.271-5.773a1.62 1.62 0 00.115-.607c0-.249-.076-.447-.229-.592-.153-.144-.36-.216-.623-.216-.222 0-.395.062-.519.185-.126.123-.241.334-.347.633l-1.505 4.306-1.622-4.367c-.095-.268-.205-.461-.327-.579a.667.667 0 00-.476-.177.895.895 0 00-.649.249.825.825 0 00-.259.621c0 .174.034.34.102.503l2.345 5.886c.068.162.139.289.213.382M40.417 199.538c.584 0 .875-.414.875-1.242v-3.539l3.169 4.189c.321.426.655.64 1.004.64.278 0 .481-.091.609-.27.129-.181.193-.454.193-.824v-5.594c0-.832-.292-1.246-.876-1.246-.587 0-.878.414-.878 1.246v3.602l-3.233-4.273a1.785 1.785 0 00-.433-.427.908.908 0 00-.497-.137c-.543 0-.814.391-.814 1.172v5.463c0 .422.073.734.216.938.143.202.363.302.665.302M50.334 193.527l.888 2.853h-1.838l.95-2.853zm-2.979 5.919a.888.888 0 00.428.103c.391 0 .671-.257.84-.774l.264-.773h2.843l.217.709c.088.287.207.499.359.642.15.143.336.212.561.212.24 0 .445-.075.614-.229a.773.773 0 00.251-.595c0-.145-.038-.331-.115-.556l-1.951-5.525c-.115-.329-.285-.582-.508-.757a1.22 1.22 0 00-.779-.261c-.322 0-.59.093-.807.279-.216.188-.396.473-.537.856l-2.002 5.436a1.405 1.405 0 00-.084.509.86.86 0 00.107.432.737.737 0 00.299.292M-7.743 210.884c.148-.18.25-.465.302-.853l.602-4.485 1.136 4.74c.085.327.206.556.364.687.158.13.38.195.667.195.179 0 .329-.024.445-.069a.594.594 0 00.289-.243c.081-.133.184-.406.312-.824.125-.414.285-1.008.475-1.776.19-.771.404-1.673.64-2.709l.554 4.598c.085.684.374 1.024.868 1.024.262 0 .478-.081.642-.246.163-.164.244-.39.244-.674 0-.119-.014-.258-.042-.417l-.856-5.293a2.56 2.56 0 00-.216-.713.946.946 0 00-.391-.42 1.312 1.312 0 00-.63-.136c-.633 0-1.034.344-1.2 1.031l-1.092 4.605-1.169-4.596c-.17-.694-.58-1.041-1.223-1.041-.244 0-.444.045-.603.133a.933.933 0 00-.374.39 2.423 2.423 0 00-.211.683l-.942 5.245a2.948 2.948 0 00-.063.528c0 .277.08.499.239.664a.822.822 0 00.618.245c.262 0 .468-.091.615-.273M1.556 211.157c.583 0 .876-.414.876-1.241v-5.399c0-.832-.293-1.246-.876-1.246-.586 0-.878.414-.878 1.246v5.399c0 .423.072.734.214.938.143.202.362.303.664.303M4.715 211.157c.584 0 .876-.416.876-1.243v-3.538l3.169 4.189c.321.425.654.638 1.004.638.278 0 .482-.089.609-.268.128-.181.194-.455.194-.824v-5.595c0-.832-.292-1.246-.876-1.246-.587 0-.877.414-.877 1.246v3.602l-3.234-4.272a1.715 1.715 0 00-.433-.427.9.9 0 00-.497-.137c-.543 0-.814.391-.814 1.17v5.464c0 .423.073.734.215.938.142.202.362.303.664.303M12.848 211.157c.584 0 .876-.414.876-1.241v-5.399c0-.832-.292-1.246-.876-1.246-.585 0-.878.414-.878 1.246v5.399c0 .423.072.734.214.938.143.202.362.303.664.303M17.453 209.635c-.274 0-.62-.064-1.035-.194-.417-.132-.694-.197-.836-.197-.169 0-.32.033-.454.098a.7.7 0 00-.305.281.795.795 0 00-.107.409c0 .212.109.412.323.6.214.188.515.341.901.46.383.115.806.176 1.263.176.599 0 1.126-.111 1.579-.333.452-.222.8-.528 1.043-.919s.364-.836.364-1.338c0-.387-.075-.724-.229-1.013a2.163 2.163 0 00-.706-.759 4.82 4.82 0 00-1.184-.563c-.214-.068-.414-.135-.595-.193-.181-.061-.331-.122-.447-.181s-.204-.129-.264-.213a.539.539 0 01-.09-.32.59.59 0 01.227-.475c.152-.125.361-.186.629-.186.16 0 .397.045.714.135.317.09.539.133.661.133.247 0 .439-.066.579-.2.138-.133.209-.313.209-.542 0-.317-.194-.586-.577-.806-.384-.22-.891-.331-1.522-.331-.551 0-1.039.107-1.462.318-.423.211-.75.504-.981.875s-.346.785-.346 1.244c0 .577.169 1.026.51 1.35.339.324.893.6 1.661.829.321.099.573.188.757.271.183.081.327.184.43.308a.733.733 0 01.156.484c0 .223-.081.41-.245.563a.873.873 0 01-.621.229M22.301 210.849c.146.205.364.309.658.309.584 0 .877-.415.877-1.243v-4.913h.649c.831 0 1.245-.27 1.245-.808 0-.549-.415-.824-1.245-.824h-3.049c-.831 0-1.246.275-1.246.824 0 .538.416.808 1.246.808h.646v4.913c0 .417.073.726.219.934M29.375 205.001c.83 0 1.247-.269 1.247-.807 0-.551-.417-.824-1.249-.824h-1.968c-.317 0-.564.043-.743.129-.177.088-.299.217-.366.394s-.102.412-.102.709v5.356c0 .288.037.511.107.666.071.154.19.267.361.334.171.068.411.104.721.104h2.044c.832 0 1.246-.271 1.246-.813 0-.539-.414-.808-1.246-.808h-1.479V208h1.229c.832 0 1.246-.27 1.246-.809 0-.543-.414-.814-1.246-.814h-1.229v-1.375h1.427zM35.044 206.601c-.191.168-.466.251-.826.251h-.807v-1.872h.829c.237 0 .435.038.599.111.164.074.287.18.37.318a.938.938 0 01.125.489c-.001.3-.096.536-.29.703m2.117-.829c0-.725-.256-1.307-.766-1.745-.511-.438-1.232-.658-2.166-.658h-1.364c-.316 0-.564.044-.742.13a.71.71 0 00-.366.393c-.067.178-.101.414-.101.709v5.313c0 .424.072.736.215.939.143.202.362.304.663.304.585 0 .877-.415.877-1.243v-1.891l2.043 2.562c.18.218.34.379.485.478a.765.765 0 00.457.152.815.815 0 00.835-.825c0-.283-.175-.62-.523-1.003l-1.384-1.536c.581-.103 1.032-.338 1.355-.704.322-.367.482-.825.482-1.375M40.441 209.635c-.273 0-.621-.064-1.034-.194-.417-.132-.695-.197-.836-.197-.169 0-.32.033-.455.098a.713.713 0 00-.306.281.804.804 0 00-.106.409c0 .212.107.412.322.6.215.188.516.341.902.46.384.115.806.176 1.264.176.599 0 1.125-.111 1.578-.333a2.48 2.48 0 001.043-.919 2.48 2.48 0 00.365-1.338c0-.387-.075-.724-.229-1.013a2.167 2.167 0 00-.707-.759 4.82 4.82 0 00-1.184-.563c-.214-.068-.413-.135-.595-.193a3.45 3.45 0 01-.446-.181.71.71 0 01-.264-.213.532.532 0 01-.09-.32c0-.193.077-.352.228-.475.15-.125.359-.186.628-.186.16 0 .397.045.714.135s.539.133.661.133c.247 0 .439-.066.579-.2.138-.133.208-.313.208-.542 0-.317-.193-.586-.576-.806s-.891-.331-1.521-.331c-.552 0-1.04.107-1.462.318a2.382 2.382 0 00-.981.875 2.303 2.303 0 00-.345 1.244c0 .577.168 1.026.509 1.35.339.324.893.6 1.662.829.321.099.573.188.757.271.182.081.327.184.43.308a.733.733 0 01.157.484c0 .223-.081.41-.245.563a.89.89 0 01-.625.229M45.289 210.849c.146.205.364.309.659.309.584 0 .876-.415.876-1.243v-4.913h.648c.831 0 1.245-.27 1.245-.808 0-.549-.414-.824-1.245-.824h-3.049c-.83 0-1.245.275-1.245.824 0 .538.415.808 1.245.808h.646v4.913c0 .417.075.726.22.934"/><path fill="#ffffff" d="M51.018 210.937c.073.094.16.164.261.209s.221.069.361.069a.799.799 0 00.528-.17c.138-.111.257-.299.361-.56l2.271-5.774c.078-.196.115-.398.115-.607 0-.249-.076-.447-.229-.592s-.36-.216-.622-.216c-.222 0-.394.062-.52.186-.126.123-.241.334-.345.634l-1.507 4.305-1.622-4.369c-.095-.266-.205-.46-.326-.577a.666.666 0 00-.477-.178.893.893 0 00-.648.248.824.824 0 00-.26.622c0 .173.033.341.1.504l2.346 5.884c.067.161.139.289.213.382M58.121 205.146l.888 2.853h-1.838l.95-2.853zm-2.978 5.918a.877.877 0 00.428.104c.391 0 .671-.258.839-.775l.264-.773h2.844l.217.71c.088.285.207.498.357.641a.79.79 0 00.563.212c.24 0 .445-.076.614-.228a.777.777 0 00.251-.597c0-.144-.038-.329-.115-.555l-1.951-5.524c-.115-.33-.286-.582-.508-.757a1.216 1.216 0 00-.779-.262 1.2 1.2 0 00-.807.279c-.217.188-.396.472-.537.856l-2.002 5.436a1.402 1.402 0 00-.084.507c0 .162.036.307.107.433a.727.727 0 00.299.293M-6.864 222.556a.68.68 0 00.261.207c.1.047.22.071.361.071.216 0 .39-.058.527-.171.139-.112.257-.3.361-.559l2.271-5.775a1.62 1.62 0 00.115-.607c0-.249-.075-.447-.229-.592-.152-.145-.36-.216-.621-.216-.223 0-.396.062-.52.186-.126.122-.241.334-.346.634l-1.506 4.305-1.622-4.369c-.094-.267-.204-.459-.327-.578a.667.667 0 00-.476-.177.893.893 0 00-.649.249.827.827 0 00-.259.621c0 .174.034.342.1.505l2.346 5.884c.068.161.139.287.213.382M-1.587 222.775c.584 0 .876-.416.876-1.242v-3.539l3.169 4.189c.321.426.654.639 1.004.639.278 0 .481-.09.609-.27.128-.181.194-.453.194-.823v-5.595c0-.831-.293-1.246-.877-1.246-.586 0-.877.415-.877 1.246v3.603l-3.233-4.272a1.704 1.704 0 00-.433-.428.9.9 0 00-.497-.138c-.544 0-.813.392-.813 1.173v5.462c0 .422.071.734.214.938.143.202.362.303.664.303M6.546 222.775c.584 0 .877-.414.877-1.241v-5.399c0-.831-.292-1.246-.877-1.246-.586 0-.877.415-.877 1.246v5.399c0 .422.071.734.214.938.142.202.362.303.663.303M10.041 222.467c.146.206.364.309.658.309.584 0 .877-.415.877-1.243v-4.914h.648c.831 0 1.246-.268 1.246-.806 0-.55-.415-.825-1.246-.825H9.175c-.831 0-1.246.275-1.246.825 0 .538.416.806 1.246.806h.646v4.914c0 .416.074.726.22.934M17.323 218.219c-.19.168-.467.251-.825.251h-.808v-1.871h.83c.236 0 .434.037.598.111s.287.179.37.317a.934.934 0 01.124.49c-.001.3-.096.535-.289.702m2.116-.828c0-.725-.256-1.306-.766-1.745-.51-.438-1.231-.658-2.166-.658h-1.362c-.318 0-.565.044-.743.131a.698.698 0 00-.366.393c-.067.178-.101.414-.101.709v5.313c0 .424.072.736.214.939s.363.304.663.304c.584 0 .877-.415.877-1.243v-1.891l2.042 2.562c.181.219.34.378.484.479a.777.777 0 00.457.151.812.812 0 00.835-.824c0-.285-.176-.62-.523-1.004l-1.384-1.536c.583-.103 1.033-.338 1.355-.704.324-.368.484-.827.484-1.376M23.1 216.765l.887 2.852H22.15l.95-2.852zm-2.979 5.919a.887.887 0 00.427.103c.391 0 .671-.258.84-.775l.264-.773h2.843l.216.71c.088.286.208.498.359.641a.782.782 0 00.561.214.875.875 0 00.614-.23.768.768 0 00.251-.596c0-.143-.038-.329-.116-.556l-1.95-5.522c-.116-.331-.285-.584-.507-.758a1.216 1.216 0 00-.781-.262c-.321 0-.59.093-.806.28-.217.188-.396.472-.537.856l-2.002 5.436c-.055.141-.084.31-.084.506 0 .162.036.308.107.434a.782.782 0 00.301.292M31.923 213.318l1.178.925a.707.707 0 00.444.159c.153 0 .3-.052.441-.159l1.178-.925a.929.929 0 00.249-.263.651.651 0 00.072-.317.574.574 0 00-.143-.406.46.46 0 00-.363-.157c-.128 0-.293.057-.496.174l-.939.563-.939-.563c-.204-.117-.371-.174-.501-.174a.478.478 0 00-.363.154.579.579 0 00-.144.409c0 .128.025.233.074.315.048.082.134.172.252.265M30.782 216.71c-.333.621-.5 1.331-.5 2.129 0 .613.09 1.169.272 1.67.18.5.439.93.773 1.289a3.38 3.38 0 001.199.824c.466.189.973.285 1.522.285.455 0 .868-.063 1.24-.187.374-.122.664-.286.871-.49.209-.204.313-.423.313-.653a.757.757 0 00-.217-.536c-.144-.153-.305-.231-.484-.231-.105 0-.339.066-.699.199-.361.131-.672.197-.937.197-.39 0-.73-.093-1.022-.278a1.858 1.858 0 01-.679-.806c-.16-.353-.239-.766-.239-1.24 0-.483.079-.906.238-1.271.156-.362.377-.64.664-.83.285-.194.613-.289.985-.289.248 0 .538.05.874.149s.561.152.672.152c.2 0 .375-.083.522-.245a.785.785 0 00.222-.548c0-.199-.099-.396-.294-.587-.195-.193-.47-.349-.825-.465a3.75 3.75 0 00-1.185-.177c-.707 0-1.349.167-1.924.504a3.572 3.572 0 00-1.362 1.435M40.563 218.219c-.191.168-.467.251-.826.251h-.808v-1.871h.83c.237 0 .435.037.599.111a.8.8 0 01.37.317.934.934 0 01.124.49c0 .3-.096.535-.289.702m2.117-.828c0-.725-.256-1.306-.766-1.745-.511-.438-1.231-.658-2.166-.658h-1.364c-.316 0-.563.044-.742.131a.705.705 0 00-.366.393c-.066.178-.1.414-.1.709v5.313c0 .424.071.736.214.939.142.203.362.304.663.304.584 0 .875-.415.875-1.243v-1.891l2.044 2.562c.179.219.34.378.484.479a.772.772 0 00.457.151.813.813 0 00.834-.824c0-.285-.175-.62-.522-1.004l-1.386-1.536c.583-.103 1.034-.338 1.357-.704.324-.368.484-.827.484-1.376M-44.287 194.26H-49.894a2.835 2.835 0 01-2.83-2.831 2.837 2.837 0 012.83-2.831H-30.076c6.237 0 11.324 5.087 11.324 11.325 0 6.236-5.087 11.323-11.324 11.323H-32.2c-.708.001-.708.709-.708.709v3.538a2.837 2.837 0 01-2.832 2.83 2.836 2.836 0 01-2.831-2.83v-3.538s0-.708-.708-.709h-10.615a2.836 2.836 0 01-2.83-2.831c0-.703.258-1.348.685-1.843l8.393-11.216c.252-.335.149-1.096-.641-1.096m-8.434 28.31h33.968a4.255 4.255 0 004.246-4.247v-33.971a4.255 4.255 0 00-4.246-4.247h-33.971a4.255 4.255 0 00-4.247 4.247v33.971a4.255 4.255 0 004.247 4.247h.003z"/><path fill="#ffffff" d="M-35.739 198.507a2.836 2.836 0 012.831 2.832 2.837 2.837 0 01-2.831 2.83 2.837 2.837 0 01-2.831-2.83 2.837 2.837 0 012.831-2.832m2.831 7.078h2.831a5.674 5.674 0 005.662-5.662 5.673 5.673 0 00-5.662-5.662h-5.327a.698.698 0 00-.537.251l-7.465 9.978c-.184.245-.205 1.096.647 1.096h9.851zM65.39 216.013c-.602.723-1.383 1.805-1.383 3.064 0 2.766 2.045 3.967 4.689 3.967h20.071c2.284 0 4.326-1.201 4.326-3.967 0-2.763-2.042-3.965-4.687-3.965H77.409c5.109-6.432 14.422-14.725 14.422-23.078 0-7.631-5.948-12.5-13.341-12.5-7.392 0-14.122 6.07-14.122 13.641 0 2.347 1.503 4.389 4.387 4.389 5.771 0 2.465-9.735 9.375-9.735 2.465 0 4.328 2.163 4.328 4.628 0 2.162-1.021 4.025-2.104 5.589-4.566 6.609-9.976 12.017-14.964 17.967M110.211 223.441a4.673 4.673 0 004.672-4.673v-33.876c0-2.225-1.564-4.067-3.648-4.536-.1-.023-.189-.057-.293-.072a4.729 4.729 0 00-.73-.064c-.947 0-1.826.283-2.563.769-.535.351-12.422 8.554-12.422 8.554a4.67 4.67 0 00.002 6.607c1.824 1.824 4.332 1.561 6.607 0l3.701-2.275v24.895a4.672 4.672 0 004.674 4.671M133.467 223.441a4.673 4.673 0 004.672-4.673v-33.876c0-2.225-1.564-4.067-3.65-4.536-.098-.023-.189-.057-.291-.072a4.75 4.75 0 00-.73-.064c-.947 0-1.828.283-2.564.769-.533.351-12.42 8.554-12.42 8.554a4.67 4.67 0 00.002 6.607c1.824 1.824 4.332 1.561 6.605 0l3.703-2.275v24.895a4.67 4.67 0 004.673 4.671"/></svg>