<?xml version="1.0"?>
<svg width="666.66669" height="666.66669" xmlns="http://www.w3.org/2000/svg" xmlns:svg="http://www.w3.org/2000/svg" xmlns:xlink="http://www.w3.org/1999/xlink" version="1.1">
 <defs id="defs6">
  <clipPath clipPathUnits="userSpaceOnUse" id="clipPath28">
   <path clip-rule="evenodd" d="m879.01,1589.69c-204.65,85.23 -767.68,640.68 -845.79,801.76c-128.48,264.93 -11.18,540.73 271.67,627.81c153.48,47.24 284.67,10.66 385.93,-114.89c34.9,-43.28 62.35,-92.69 88.07,-141.73c7.82,-14.88 15.8,-29.69 23.42,-44.67c3.85,-7.55 11.73,-22.54 11.73,-22.54c0,0 34.25,92.41 51.83,124.15c43.33,78.26 116.24,135.91 197.07,172.42c55.86,25.23 118.91,42.59 180.19,46.61c326.33,21.48 472.97,-283.92 395.88,-569.26c-85.77,-317.48 -760,-879.66 -760,-879.66z" id="path26"/>
  </clipPath>
  <clipPath clipPathUnits="userSpaceOnUse" id="clipPath62">
   <path clip-rule="evenodd" d="m466.81,6562.71c-16.57,3.22 -124.82,-19.13 -173.58,-8.4c-15.44,3.4 -41.72,6.9 -49.36,23.38c-8.07,17.42 5.89,43.52 16.14,57.01c29.17,38.33 73.51,66.46 109.52,98.22c103.25,91.03 206.33,181.82 311.86,270.21c55.63,46.62 115.69,87.66 171.44,134.14c50.96,42.47 101.61,93.23 157.83,128.9c23.15,14.7 48.31,29.73 76.56,29.47c28.24,0.26 53.41,-14.77 76.55,-29.47c56.22,-35.67 106.87,-86.43 157.83,-128.9c55.76,-46.48 115.81,-87.52 171.45,-134.14c105.52,-88.39 208.61,-179.18 311.85,-270.21c36.02,-31.76 80.35,-59.89 109.52,-98.22c10.28,-13.49 24.23,-39.59 16.15,-57.01c-7.65,-16.48 -33.93,-19.98 -49.37,-23.38c-48.76,-10.73 -156.18,-7.38 -172.73,-10.61l0,-740.09c0,-52.6 -42.71,-95.3 -95.3,-95.3l-1051.9,0c-52.6,0 -95.3,42.7 -95.3,95.3l0.84,759.1z" id="path60"/>
  </clipPath>
  <clipPath clipPathUnits="userSpaceOnUse" id="clipPath98">
   <path clip-rule="evenodd" d="m-1829.31,1201.04c109.25,-65.24 281.22,-334.7 374.4,-391.5c126.15,-76.9 212.4,-11.42 321.27,73.77c156.99,122.87 301.83,184.95 363.25,197.8c107.62,22.51 190.29,-63.59 200.68,-152.37c16.12,-137.73 -25.91,-259.1 -90.57,-383.03c-52.62,-100.85 -415.45,-507.3 -679.52,-534.89c-116.78,-12.2 -189.1,44.26 -303.64,141.22c-146.7,124.2 -221.36,208.09 -320.51,380.08c-62.74,108.84 -114.61,268.56 -126.52,395.03c-10.1,107.3 30.76,411.46 261.16,273.89z" id="path96"/>
  </clipPath>
  <clipPath clipPathUnits="userSpaceOnUse" id="clipPath152">
   <path clip-rule="evenodd" d="m-1336.01,3635.51c449.83,0 815.01,-365.19 815.01,-815c0,-449.81 -365.18,-815 -815.01,-815c-449.8,0 -814.99,365.19 -814.99,815c0,449.81 365.19,815 814.99,815z" id="path150"/>
  </clipPath>
  <symbol id="svg_8" viewBox="0 0 200 200" xmlns="http://www.w3.org/2000/svg">
   <path d="m49.8,-76.4c14.3,8.2 25.2,22.7 28.7,38.2c3.6,15.6 -0.3,32.3 -2.4,49.4c-2,17.1 -2.3,34.8 -10.1,48.8c-7.7,14.1 -22.9,24.5 -38.2,24.3c-15.3,-0.3 -30.7,-11.3 -47.6,-16.5c-16.9,-5.2 -35.3,-4.6 -47.9,-12.7c-12.6,-8.1 -19.4,-24.9 -18.1,-40.5c1.3,-15.6 10.7,-30.1 20.4,-41.7c9.6,-11.5 19.6,-20.1 30.6,-29.8c10.9,-9.7 22.9,-20.6 37.7,-25.1c14.8,-4.5 32.5,-2.6 46.9,5.6z" fill="#FF0066" transform="translate(100 100)"/>
  </symbol>
 </defs>
 <g class="layer">
  <title>Layer 1</title>
  <use id="svg_9" transform="rotate(-6.92066, 350.265, 390.561) matrix(-0.595038, -0.881124, 0.944796, -0.510159, 351.998, 868.617)" x="75.01" xlink:href="#svg_8" y="-84.16"/>
  <g id="svg_10" transform="matrix(1, 0, 0, 1, 0, 0)">
   <path d="m98,597.09c-11.08,-24.36 -26.24,-68.41 -31.44,-94.74c-12.24,-62.03 -4.37,-127.79 10.59,-188.5c5.36,-21.75 12.33,-42.18 24.48,-61.12c6.47,-10.09 15.22,-19.93 28.26,-19.5c11.62,0.39 13.15,16.8 14.65,25.1c4.62,25.45 7.77,53.92 21.35,76.48c13.96,23.19 36.05,37.41 58.45,51.43c14.12,8.83 33.26,18.95 41.4,34.25c4.69,8.84 -1.47,16.38 -9.83,19.27c-23.46,8.11 -45.01,4.67 -56.35,32.04c-8.94,21.58 -8.69,48.26 -7.95,71.16c1.26,39.32 1.15,80.5 16.71,117.34" fill="#ffffff" fill-rule="evenodd" id="path64"/>
   <path d="m253.89,626.33c-0.81,-24.02 9.02,-49.07 5.7,-72.65c-3.07,-21.8 -13.15,-36.85 -26.63,-60.88c-4.13,-7.34 -11.34,-32.31 1.63,-35.97c9.1,-2.56 17.99,5.91 25.07,10.44c14.37,9.19 34.1,15.22 49.9,12.95c29.92,-4.3 46.5,-14.28 69.92,-33.76c12.36,-10.28 28.89,-1.65 22.93,16.18c-4.44,13.29 -15.52,29.4 -22.64,41.62c-19.38,33.26 -28.71,70.17 -18.68,108.43" fill="#ffffff" fill-rule="evenodd" id="path66"/>
   <path d="m392.32,625.75c6.44,-3.37 10.17,-10.66 13.26,-16.92c7.04,-14.27 12.74,-28.66 15.78,-44.34c9.91,-51.09 18.92,-116.42 -30.88,-150.98c-18.76,-13.02 -40.54,-6.61 -60.3,-15.05c-7.72,-3.3 -17.02,-9.76 -16.71,-19.29c0.45,-13.91 18.34,-18.32 29.18,-19.62c36.87,-4.4 65.83,-9.78 94.37,-35.96c23.41,-21.46 31.1,-52 51.19,-75.48c8.17,-9.55 20.41,-20.96 34.24,-18.43c12.48,2.28 19.03,14.12 23.57,24.83c10.1,23.82 15.45,47.63 18.29,73.19c7.97,71.67 -9.05,150.98 -37.95,216.52c-12.54,28.44 -29.38,62.38 -54.18,82.15" fill="#ffffff" fill-rule="evenodd" id="path68"/>
   <path d="m228.45,267.18c23.08,0 41.81,18.74 41.81,41.82c0,23.08 -18.74,41.82 -41.81,41.82c-23.09,0 -41.83,-18.74 -41.83,-41.82c0,-23.08 18.74,-41.82 41.83,-41.82" fill="#ffffff" fill-rule="evenodd" id="path72"/>
   <path d="m390.84,237.55c23.08,0 41.82,18.74 41.82,41.82c0,23.09 -18.74,41.82 -41.82,41.82c-23.08,0 -41.82,-18.74 -41.82,-41.82c0,-23.08 18.74,-41.82 41.82,-41.82" fill="#ffffff" fill-rule="evenodd" id="path74"/>
   <path d="m311.37,401.22c16.45,0 29.81,13.35 29.81,29.81c0,16.45 -13.36,29.81 -29.81,29.81c-16.45,0 -29.81,-13.36 -29.81,-29.81c0,-16.45 13.36,-29.81 29.81,-29.81" fill="#ffffff" fill-rule="evenodd" id="path76"/>
  </g>
 </g>
</svg>