<?xml version="1.0"?>
<svg width="666.66669" height="666.66669" xmlns="http://www.w3.org/2000/svg" xmlns:svg="http://www.w3.org/2000/svg" xmlns:xlink="http://www.w3.org/1999/xlink" version="1.1">
 <defs>
  <symbol id="svg_8" viewBox="0 0 200 200" xmlns="http://www.w3.org/2000/svg">
   <path d="m49.8,-76.4c14.3,8.2 25.2,22.7 28.7,38.2c3.6,15.6 -0.3,32.3 -2.4,49.4c-2,17.1 -2.3,34.8 -10.1,48.8c-7.7,14.1 -22.9,24.5 -38.2,24.3c-15.3,-0.3 -30.7,-11.3 -47.6,-16.5c-16.9,-5.2 -35.3,-4.6 -47.9,-12.7c-12.6,-8.1 -19.4,-24.9 -18.1,-40.5c1.3,-15.6 10.7,-30.1 20.4,-41.7c9.6,-11.5 19.6,-20.1 30.6,-29.8c10.9,-9.7 22.9,-20.6 37.7,-25.1c14.8,-4.5 32.5,-2.6 46.9,5.6z" transform="translate(100 100)"/>
  </symbol>
 </defs>
 <use transform="rotate(9.5685, 343.222, 327.087) matrix(-0.714732, -0.798052, 0.808614, -0.668129, 416.985, 828.392)" x="81.55" xlink:href="#svg_8" y="-66.54" fill="#FF0066" />
 <g >
  <path d="m103,548.09c-11.08,-24.36 -26.24,-68.41 -31.44,-94.74c-12.24,-62.03 -4.37,-127.79 10.59,-188.5c5.36,-21.75 12.33,-42.18 24.48,-61.12c6.47,-10.09 15.22,-19.93 28.26,-19.5c11.62,0.39 13.15,16.8 14.65,25.1c4.62,25.45 7.77,53.92 21.35,76.48c13.96,23.19 36.05,37.41 58.45,51.43c14.12,8.83 33.26,18.95 41.4,34.25c4.69,8.84 -1.47,16.38 -9.83,19.27c-23.46,8.11 -45.01,4.67 -56.35,32.04c-8.94,21.58 -8.69,48.26 -7.95,71.16c1.26,39.32 1.15,80.5 16.71,117.34" fill="#ffffff" />
  <path d="m258.89,577.33c-0.81,-24.02 9.02,-49.07 5.7,-72.65c-3.07,-21.8 -13.15,-36.85 -26.63,-60.88c-4.13,-7.34 -11.34,-32.31 1.63,-35.97c9.1,-2.56 17.99,5.91 25.07,10.44c14.37,9.19 34.1,15.22 49.9,12.95c29.92,-4.3 46.5,-14.28 69.92,-33.76c12.36,-10.28 28.89,-1.65 22.93,16.18c-4.44,13.29 -15.52,29.4 -22.64,41.62c-19.38,33.26 -28.71,70.17 -18.68,108.43" fill="#ffffff" />
  <path d="m397.32,576.75c6.44,-3.37 10.17,-10.66 13.26,-16.92c7.04,-14.27 12.74,-28.66 15.78,-44.34c9.91,-51.09 18.92,-116.42 -30.88,-150.98c-18.76,-13.02 -40.54,-6.61 -60.3,-15.05c-7.72,-3.3 -17.02,-9.76 -16.71,-19.29c0.45,-13.91 18.34,-18.32 29.18,-19.62c36.87,-4.4 65.83,-9.78 94.37,-35.96c23.41,-21.46 31.1,-52 51.19,-75.48c8.17,-9.55 20.41,-20.96 34.24,-18.43c12.48,2.28 19.03,14.12 23.57,24.83c10.1,23.82 15.45,47.63 18.29,73.19c7.97,71.67 -9.05,150.98 -37.95,216.52c-12.54,28.44 -29.38,62.38 -54.18,82.15" fill="#ffffff" fill-rule="evenodd" id="path68"/>
  <path d="m233.45,218.18c23.08,0 41.81,18.74 41.81,41.82c0,23.08 -18.74,41.82 -41.81,41.82c-23.09,0 -41.83,-18.74 -41.83,-41.82c0,-23.08 18.74,-41.82 41.83,-41.82" fill="#ffffff" />
  <path d="m395.84,188.55c23.08,0 41.82,18.74 41.82,41.82c0,23.09 -18.74,41.82 -41.82,41.82c-23.08,0 -41.82,-18.74 -41.82,-41.82c0,-23.08 18.74,-41.82 41.82,-41.82" fill="#ffffff" />
  <path d="m316.37,352.22c16.45,0 29.81,13.35 29.81,29.81c0,16.45 -13.36,29.81 -29.81,29.81c-16.45,0 -29.81,-13.36 -29.81,-29.81c0,-16.45 13.36,-29.81 29.81,-29.81" fill="#ffffff" />
 </g>
</svg>