<?xml version="1.0" standalone="no"?>
<svg viewBox="0 0 200 200" xmlns="http://www.w3.org/2000/svg">
  <path fill="#FF0066" d="M49.8,-76.4C64.1,-68.2,75,-53.7,78.5,-38.2C82.1,-22.6,78.2,-5.9,76.1,11.2C74.1,28.3,73.8,46,66,60C58.3,74.1,43.1,84.5,27.8,84.3C12.5,84,-2.9,73,-19.8,67.8C-36.7,62.6,-55.1,63.2,-67.7,55.1C-80.3,47,-87.1,30.2,-85.8,14.6C-84.5,-1,-75.1,-15.5,-65.4,-27.1C-55.8,-38.6,-45.8,-47.2,-34.8,-56.9C-23.9,-66.6,-11.9,-77.5,2.9,-82C17.7,-86.5,35.4,-84.6,49.8,-76.4Z" transform="translate(100 100)" />
</svg>
