<?xml version="1.0" encoding="UTF-8" standalone="no"?>
<svg
   width="600"
   height="500"
   version="1.1"
   xmlns="http://www.w3.org/2000/svg">
  <path
     d="m 359.5551,12.182275 c -10.12068,-0.278742 -20.25402,0.283272 -30.17872,1.718401 -52.87812,7.22894 -99.83045,39.29839 -148.75177,66.179359 C 131.49518,106.72119 79.665594,128.30527 46.325243,165.83726 13.038519,202.94418 -2.2290312,255.94426 6.0688582,305.42831 13.020048,346.06313 35.580126,384.17739 66.830538,411.57883 64.661736,403.96971 62.843729,396.81487 61.643843,390.7393 50.677458,335.16373 57.728427,276.24612 71.131785,221.85321 75.93406,202.36638 82.17925,184.0629 93.065001,167.09368 c 5.796771,-9.0401 13.636119,-17.85623 25.319269,-17.47098 10.41089,0.34942 11.78206,15.05158 13.12598,22.48793 4.13927,22.80185 6.96117,48.30993 19.12812,68.52248 12.50741,20.777 32.29997,33.51713 52.36918,46.0783 12.65076,7.91121 29.79781,16.97821 37.09082,30.6862 4.20199,7.92016 -1.31712,14.67519 -8.80723,17.26448 -21.01891,7.26613 -40.32625,4.18501 -50.48629,28.70707 -8.00976,19.33452 -7.78508,43.23683 -7.12208,63.754 0.36051,11.25026 0.6368,22.67 1.24417,34.07925 19.34485,4.39085 38.8171,7.68155 57.50688,10.85637 1.92619,-11.92644 3.77602,-23.8235 2.15587,-35.33043 -2.75055,-19.53164 -11.78248,-33.01645 -23.85985,-54.54605 -3.70026,-6.57624 -10.15926,-28.94694 1.46117,-32.22611 8.15311,-2.29362 16.11662,5.29457 22.45993,9.35321 12.87475,8.23375 30.55217,13.63737 44.70813,11.60357 26.80671,-3.85258 41.6615,-12.79569 62.64457,-30.24873 11.0739,-9.21033 25.88363,-1.47682 20.54379,14.4979 -3.978,11.90713 -13.90392,26.34009 -20.28306,37.28856 -16.84246,28.90507 -25.16257,60.89104 -17.44822,94.06923 12.61157,1.45162 25.46073,2.56365 38.69372,3.27931 0.65697,-1.23111 1.29007,-2.46868 1.87764,-3.65904 6.30746,-12.78515 11.41549,-25.67772 14.13917,-39.72617 8.87883,-45.77391 16.95051,-104.30665 -27.66762,-135.27056 -16.80796,-11.66522 -36.32068,-5.92292 -54.02458,-13.4847 -6.91671,-2.95663 -15.24987,-8.74362 -14.97213,-17.28199 0.40318,-12.46262 16.43141,-16.41474 26.14347,-17.57947 33.03355,-3.94216 58.98122,-8.76148 84.55154,-32.21735 20.9741,-19.22702 27.86349,-46.58971 45.86306,-67.62654 7.31988,-8.55628 18.28651,-18.77877 30.67744,-16.51203 11.18142,2.04276 17.05017,12.65086 21.11776,22.24645 9.04906,21.34145 13.84155,42.67351 16.38604,65.57389 7.1407,64.21249 -8.10765,135.27153 -34.0005,193.99187 -8.74857,19.84125 -19.88749,42.59343 -34.85621,60.08972 31.23813,-3.40576 61.94238,-11.02989 87.72585,-26.29745 43.53825,-25.78099 73.36033,-73.21112 68.33874,-118.43306 C 589.78796,298.39089 549.92215,255.37706 528.36069,205.21519 506.79924,155.05333 503.5419,97.742859 472.48473,60.495189 447.03809,30.381966 403.41141,13.390148 359.5551,12.182275 Z m -7.37231,141.311205 c 20.67844,-1e-5 37.46705,16.7886 37.46705,37.46705 0,20.6874 -16.78861,37.4688 -37.46705,37.4688 -20.67845,0 -37.46881,-16.79036 -37.4688,-37.4688 -1e-5,-20.67844 16.79035,-37.46705 37.4688,-37.46705 z m -145.49346,26.54594 c 20.67845,0 37.46005,16.79036 37.46005,37.4688 0,20.67845 -16.79056,37.4688 -37.46005,37.4688 -20.68741,0 -37.47755,-16.79035 -37.47755,-37.4688 1e-5,-20.67844 16.79014,-37.4688 37.47755,-37.4688 z m 74.29189,120.0937 c 14.73832,0 26.70868,11.95965 26.70868,26.70693 0,14.73831 -11.97036,26.70869 -26.70869,26.70869 -14.73831,0 -26.70867,-11.97037 -26.70867,-26.70869 0,-14.73832 11.97036,-26.70693 26.70868,-26.70693 z" />
</svg>
